# xmcd
#
# Track frame offsets: 
#        150
#        18157
#        42240
#        74931
#        97803
#        126404
#        144927
#        163043
#        185576
#        215772
#
# Disc length: 3253 seconds
#
# Revision: 2
# Processed by: cddbd v1.5.2PL0 Copyright (c) Steve Scherf et al.
# Submitted via: ExactAudioCopyFreeDBPlugin 1.0
#
DISCID=930cb30a
DTITLE=Paul Banks - One Man Band Live
DYEAR=2004
DGENRE=Blues
TTITLE0=Seasons's Over
TTITLE1=Meet The Folks
TTITLE2=The Upper Room
TTITLE3=Dogmatism - Maple Leaf Rag
TTITLE4=Dissatisfied
TTITLE5=Jungle Nights In Harlem
TTITLE6=I'm Disappering
TTITLE7=Electricity
TTITLE8=Stealing
TTITLE9=Rattle Your Bones
EXTD=
EXTT0=
EXTT1=
EXTT2=
EXTT3=
EXTT4=
EXTT5=
EXTT6=
EXTT7=
EXTT8=
EXTT9=
PLAYORDER=
